#Comment line ignore any data following # character 
#Hierarchical Translation and Rotation (.htr) file 
[Header]	
#Header keywords are followed by a single value 
FileType HTR		#Single word string
DataType HTRS		#Translation followed by rotation and scale data
FileVersion 1		#integer
NumSegments 84		#integer
NumFrames 2		#integer
DataFrameRate 30		#integer, data frame rate in this file
EulerRotationOrder ZYX
CalibrationUnits mm
RotationUnits Degrees
GlobalAxisofGravity Y
BoneLengthAxis Y
ScaleFactor 1.00
[SegmentNames&Hierarchy]
#CHILD	PARENT
MASTER GLOBAL
root MASTER
chest root
L_mid_tent01 root
R_mid_tent01 root
spine01 root
Bip01_Neck chest
L_humerus chest
R_humerus chest
weapon_bone chest
Bip01_Head Bip01_Neck
eye_left_bone Bip01_Head
eye_right_bone Bip01_Head
L_forearm L_humerus
L_front_hand L_forearm
L_weapon_bone L_forearm
L_front_hand01_01 L_front_hand
L_front_hand02_01 L_front_hand
L_front_hand03_01 L_front_hand
L_front_hand01_02 L_front_hand01_01
L_front_hand02_02 L_front_hand02_01
L_front_hand03_02 L_front_hand03_01
R_forearm R_humerus
R_front_hand R_forearm
R_weapon_bone R_forearm
R_front_hand01_01 R_front_hand
R_front_hand02_01 R_front_hand
R_front_hand03_01 R_front_hand
R_front_hand01_02 R_front_hand01_01
R_front_hand02_02 R_front_hand02_01
R_front_hand03_02 R_front_hand03_01
null_rope01_connect L_mid_tent01
Rope1_Seg01 null_rope01_connect
Rope1_Seg02 Rope1_Seg01
Rope1_Seg03 Rope1_Seg02
Rope1_Seg04 Rope1_Seg03
Rope1_Seg05 Rope1_Seg04
Rope1_Seg06 Rope1_Seg05
Rope1_Seg07 Rope1_Seg06
Rope1_Seg09 Rope1_Seg07
L_mid_hand01 Rope1_Seg09
L_mid_hand02 Rope1_Seg09
L_mid_hand03 Rope1_Seg09
null_rope02_connect R_mid_tent01
Rope2_Seg01 null_rope02_connect
Rope2_Seg02 Rope2_Seg01
Rope2_Seg03 Rope2_Seg02
Rope2_Seg04 Rope2_Seg03
Rope2_Seg05 Rope2_Seg04
Rope2_Seg06 Rope2_Seg05
Rope2_Seg07 Rope2_Seg06
Rope2_Seg09 Rope2_Seg07
R_mid_hand01 Rope2_Seg09
R_mid_hand02 Rope2_Seg09
R_mid_hand03 Rope2_Seg09
spine02 spine01
spine03 spine02
pelvis spine03
null_rope03_connect pelvis
null_rope04_connect pelvis
Rope3_Seg01 null_rope03_connect
Rope3_Seg02 Rope3_Seg01
Rope3_Seg03 Rope3_Seg02
Rope3_Seg04 Rope3_Seg03
Rope3_Seg05 Rope3_Seg04
Rope3_Seg06 Rope3_Seg05
Rope3_Seg07 Rope3_Seg06
Rope3_Seg08 Rope3_Seg07
Rope3_Seg09 Rope3_Seg08
R_rear_hand01 Rope3_Seg09
R_rear_hand02 Rope3_Seg09
R_rear_hand03 Rope3_Seg09
Rope4_Seg01 null_rope04_connect
Rope4_Seg02 Rope4_Seg01
Rope4_Seg03 Rope4_Seg02
Rope4_Seg04 Rope4_Seg03
Rope4_Seg05 Rope4_Seg04
Rope4_Seg06 Rope4_Seg05
Rope4_Seg07 Rope4_Seg06
Rope4_Seg08 Rope4_Seg07
Rope4_Seg09 Rope4_Seg08
L_rear_hand01 Rope4_Seg09
L_rear_hand02 Rope4_Seg09
L_rear_hand03 Rope4_Seg09
[BasePosition]
#SegmentName Tx, Ty, Tz, Rx, Ry, Rz, BoneLength
MASTER 0.000000 0.000000 0.000000 -90.000000 0.000000 0.000000 10.000000 
root 0.000000 0.000000 0.000000 0.000000 0.000000 0.000000 10.000000 
chest 0.000000 0.000000 0.000000 0.000000 0.000000 0.000000 10.000000 
L_mid_tent01 0.000000 0.000000 0.000000 0.000000 0.000000 0.000000 10.000000 
R_mid_tent01 0.000000 0.000000 0.000000 0.000000 0.000000 0.000000 10.000000 
spine01 0.000000 0.000000 0.000000 0.000000 0.000000 0.000000 10.000000 
Bip01_Neck 0.000000 0.000000 0.000000 0.000000 0.000000 0.000000 10.000000 
L_humerus 0.000000 0.000000 0.000000 0.000000 0.000000 0.000000 10.000000 
R_humerus 0.000000 0.000000 0.000000 0.000000 0.000000 0.000000 10.000000 
weapon_bone 0.000000 0.000000 0.000000 0.000000 0.000000 0.000000 10.000000 
Bip01_Head 0.000000 0.000000 0.000000 0.000000 0.000000 0.000000 10.000000 
eye_left_bone 0.000000 0.000000 0.000000 0.000000 0.000000 0.000000 10.000000 
eye_right_bone 0.000000 0.000000 0.000000 0.000000 0.000000 0.000000 10.000000 
L_forearm 0.000000 0.000000 0.000000 0.000000 0.000000 0.000000 10.000000 
L_front_hand 0.000000 0.000000 0.000000 0.000000 0.000000 0.000000 10.000000 
L_weapon_bone 0.000000 0.000000 0.000000 0.000000 0.000000 0.000000 10.000000 
L_front_hand01_01 0.000000 0.000000 0.000000 0.000000 0.000000 0.000000 10.000000 
L_front_hand02_01 0.000000 0.000000 0.000000 0.000000 0.000000 0.000000 10.000000 
L_front_hand03_01 0.000000 0.000000 0.000000 0.000000 0.000000 0.000000 10.000000 
L_front_hand01_02 0.000000 0.000000 0.000000 0.000000 0.000000 0.000000 10.000000 
L_front_hand02_02 0.000000 0.000000 0.000000 0.000000 0.000000 0.000000 10.000000 
L_front_hand03_02 0.000000 0.000000 0.000000 0.000000 0.000000 0.000000 10.000000 
R_forearm 0.000000 0.000000 0.000000 0.000000 0.000000 0.000000 10.000000 
R_front_hand 0.000000 0.000000 0.000000 0.000000 0.000000 0.000000 10.000000 
R_weapon_bone 0.000000 0.000000 0.000000 0.000000 0.000000 0.000000 10.000000 
R_front_hand01_01 0.000000 0.000000 0.000000 0.000000 0.000000 0.000000 10.000000 
R_front_hand02_01 0.000000 0.000000 0.000000 0.000000 0.000000 0.000000 10.000000 
R_front_hand03_01 0.000000 0.000000 0.000000 0.000000 0.000000 0.000000 10.000000 
R_front_hand01_02 0.000000 0.000000 0.000000 0.000000 0.000000 0.000000 10.000000 
R_front_hand02_02 0.000000 0.000000 0.000000 0.000000 0.000000 0.000000 10.000000 
R_front_hand03_02 0.000000 0.000000 0.000000 0.000000 0.000000 0.000000 10.000000 
null_rope01_connect 0.000000 0.000000 0.000000 0.000000 0.000000 0.000000 10.000000 
Rope1_Seg01 0.000000 0.000000 0.000000 0.000000 0.000000 0.000000 10.000000 
Rope1_Seg02 0.000000 0.000000 0.000000 0.000000 0.000000 0.000000 10.000000 
Rope1_Seg03 0.000000 0.000000 0.000000 0.000000 0.000000 0.000000 10.000000 
Rope1_Seg04 0.000000 0.000000 0.000000 0.000000 0.000000 0.000000 10.000000 
Rope1_Seg05 0.000000 0.000000 0.000000 0.000000 0.000000 0.000000 10.000000 
Rope1_Seg06 0.000000 0.000000 0.000000 0.000000 0.000000 0.000000 10.000000 
Rope1_Seg07 0.000000 0.000000 0.000000 0.000000 0.000000 0.000000 10.000000 
Rope1_Seg09 0.000000 0.000000 0.000000 0.000000 0.000000 0.000000 10.000000 
L_mid_hand01 0.000000 0.000000 0.000000 0.000000 0.000000 0.000000 10.000000 
L_mid_hand02 0.000000 0.000000 0.000000 0.000000 0.000000 0.000000 10.000000 
L_mid_hand03 0.000000 0.000000 0.000000 0.000000 0.000000 0.000000 10.000000 
null_rope02_connect 0.000000 0.000000 0.000000 0.000000 0.000000 0.000000 10.000000 
Rope2_Seg01 0.000000 0.000000 0.000000 0.000000 0.000000 0.000000 10.000000 
Rope2_Seg02 0.000000 0.000000 0.000000 0.000000 0.000000 0.000000 10.000000 
Rope2_Seg03 0.000000 0.000000 0.000000 0.000000 0.000000 0.000000 10.000000 
Rope2_Seg04 0.000000 0.000000 0.000000 0.000000 0.000000 0.000000 10.000000 
Rope2_Seg05 0.000000 0.000000 0.000000 0.000000 0.000000 0.000000 10.000000 
Rope2_Seg06 0.000000 0.000000 0.000000 0.000000 0.000000 0.000000 10.000000 
Rope2_Seg07 0.000000 0.000000 0.000000 0.000000 0.000000 0.000000 10.000000 
Rope2_Seg09 0.000000 0.000000 0.000000 0.000000 0.000000 0.000000 10.000000 
R_mid_hand01 0.000000 0.000000 0.000000 0.000000 0.000000 0.000000 10.000000 
R_mid_hand02 0.000000 0.000000 0.000000 0.000000 0.000000 0.000000 10.000000 
R_mid_hand03 0.000000 0.000000 0.000000 0.000000 0.000000 0.000000 10.000000 
spine02 0.000000 0.000000 0.000000 0.000000 0.000000 0.000000 10.000000 
spine03 0.000000 0.000000 0.000000 0.000000 0.000000 0.000000 10.000000 
pelvis 0.000000 0.000000 0.000000 0.000000 0.000000 0.000000 10.000000 
null_rope03_connect 0.000000 0.000000 0.000000 0.000000 0.000000 0.000000 10.000000 
null_rope04_connect 0.000000 0.000000 0.000000 0.000000 0.000000 0.000000 10.000000 
Rope3_Seg01 0.000000 0.000000 0.000000 0.000000 0.000000 0.000000 10.000000 
Rope3_Seg02 0.000000 0.000000 0.000000 0.000000 0.000000 0.000000 10.000000 
Rope3_Seg03 0.000000 0.000000 0.000000 0.000000 0.000000 0.000000 10.000000 
Rope3_Seg04 0.000000 0.000000 0.000000 0.000000 0.000000 0.000000 10.000000 
Rope3_Seg05 0.000000 0.000000 0.000000 0.000000 0.000000 0.000000 10.000000 
Rope3_Seg06 0.000000 0.000000 0.000000 0.000000 0.000000 0.000000 10.000000 
Rope3_Seg07 0.000000 0.000000 0.000000 0.000000 0.000000 0.000000 10.000000 
Rope3_Seg08 0.000000 0.000000 0.000000 0.000000 0.000000 0.000000 10.000000 
Rope3_Seg09 0.000000 0.000000 0.000000 0.000000 0.000000 0.000000 10.000000 
R_rear_hand01 0.000000 0.000000 0.000000 0.000000 0.000000 0.000000 10.000000 
R_rear_hand02 0.000000 0.000000 0.000000 0.000000 0.000000 0.000000 10.000000 
R_rear_hand03 0.000000 0.000000 0.000000 0.000000 0.000000 0.000000 10.000000 
Rope4_Seg01 0.000000 0.000000 0.000000 0.000000 0.000000 0.000000 10.000000 
Rope4_Seg02 0.000000 0.000000 0.000000 0.000000 0.000000 0.000000 10.000000 
Rope4_Seg03 0.000000 0.000000 0.000000 0.000000 0.000000 0.000000 10.000000 
Rope4_Seg04 0.000000 0.000000 0.000000 0.000000 0.000000 0.000000 10.000000 
Rope4_Seg05 0.000000 0.000000 0.000000 0.000000 0.000000 0.000000 10.000000 
Rope4_Seg06 0.000000 0.000000 0.000000 0.000000 0.000000 0.000000 10.000000 
Rope4_Seg07 0.000000 0.000000 0.000000 0.000000 0.000000 0.000000 10.000000 
Rope4_Seg08 0.000000 0.000000 0.000000 0.000000 0.000000 0.000000 10.000000 
Rope4_Seg09 0.000000 0.000000 0.000000 0.000000 0.000000 0.000000 10.000000 
L_rear_hand01 0.000000 0.000000 0.000000 0.000000 0.000000 0.000000 10.000000 
L_rear_hand02 0.000000 0.000000 0.000000 0.000000 0.000000 0.000000 10.000000 
L_rear_hand03 0.000000 0.000000 0.000000 0.000000 0.000000 0.000000 10.000000 
#Beginning of Data. Separated by tabs
#Fr	Tx	Ty	Tz	Rx	Ry	Rz	SF
[MASTER]
34 0.000000 0.000000 0.000000 0.001660 0.001660 0.001660 0.000000
35 0.000000 0.000000 0.000000 0.001660 0.001660 0.001660 0.000000
[root]
34 -16.502291 -62.822105 1520.468628 -91.629700 -27.676079 -90.148109 1521.855347
35 -16.502291 -62.822105 1507.557373 -91.629700 -27.676081 -90.148109 1508.956055
[chest]
34 -84.512650 -34.090519 0.000000 -2.308287 0.677443 178.347275 91.129311
35 -84.512650 -34.090519 0.000000 -2.078853 0.819068 -179.749374 91.129311
[L_mid_tent01]
34 27.299763 22.177179 -249.917664 -24.434435 20.743937 32.562748 252.380554
35 27.299784 22.177153 -249.917633 -26.070013 17.778164 28.489180 252.380508
[R_mid_tent01]
34 23.228794 24.509907 226.238495 -179.731552 -21.770689 44.714684 228.744751
35 23.228794 24.509907 226.238495 -179.065521 -18.304281 41.248589 228.744751
[spine01]
34 -0.361383 -0.195265 0.000000 0.001874 0.001414 15.943589 0.410763
35 -0.361383 -0.195265 0.000000 0.001871 0.001417 15.728825 0.410763
[Bip01_Neck]
34 165.484543 71.581718 0.000119 175.896118 1.177290 24.871183 180.302734
35 165.484543 71.581718 0.000119 175.896118 1.177290 24.871183 180.302734
[L_humerus]
34 -13.983130 -135.272980 -120.471481 165.648483 52.800598 -110.333771 181.680161
35 -13.983130 -135.272980 -120.471481 161.626678 61.733929 -110.343758 181.680161
[R_humerus]
34 -13.983309 -135.273102 125.287651 -170.020660 -50.364948 -102.220490 184.909012
35 -13.983309 -135.273102 125.287651 -170.389511 -58.657692 -98.125061 184.909012
[weapon_bone]
34 235.964890 -300.705902 0.000000 0.000000 -89.951546 -128.212341 382.234833
35 235.964890 -300.705902 0.000000 0.000000 -89.951546 -128.212341 382.234833
[Bip01_Head]
34 194.992294 213.862915 16.257078 2.940659 3.352528 -36.946766 289.868317
35 208.023590 194.511887 13.177468 4.334104 2.971102 -41.797447 285.100586
[eye_left_bone]
34 -24.626970 125.451866 -64.772606 0.000000 -90.000000 -99.840431 143.318359
35 -24.626970 125.451866 -64.772606 0.000000 -90.000000 -99.840431 143.318359
[eye_right_bone]
34 -24.626970 125.451866 64.327362 0.000000 -89.960434 80.159386 143.117676
35 -24.626970 125.451866 64.327362 0.000000 -89.960434 80.159386 143.117676
[L_forearm]
34 322.776093 0.000000 -0.000119 0.000017 0.002347 -89.149834 322.776093
35 322.776093 0.000000 -0.000119 0.000017 0.002347 -89.149834 322.776093
[L_front_hand]
34 241.149185 -0.042021 -3.300071 -178.918610 -1.996563 -19.878405 241.171753
35 241.149185 -0.042021 -3.300071 -178.772446 -1.908472 -24.229366 241.171753
[L_weapon_bone]
34 150.750961 39.135624 0.002426 0.001876 0.001411 16.108347 155.748032
35 150.515274 40.833405 0.002777 0.001873 0.001415 15.878621 155.955811
[L_front_hand01_01]
34 86.095154 20.947098 -0.655860 0.405585 -0.442306 -4.620490 88.609184
35 86.095154 20.947098 -0.655860 0.405585 -0.442306 -4.620490 88.609184
[L_front_hand02_01]
34 86.935165 -11.437475 24.513514 116.959450 3.630817 1.495453 91.046425
35 86.935165 -11.437475 24.513514 116.959450 3.630817 1.495453 91.046425
[L_front_hand03_01]
34 86.637497 -14.123976 -20.424902 -118.420097 -4.656303 -0.152527 90.126129
35 86.637497 -14.123976 -20.424902 -118.420097 -4.656303 -0.152527 90.126129
[L_front_hand01_02]
34 71.020905 -0.000179 0.000030 0.000004 -0.000005 -8.379269 71.020905
35 71.020905 -0.000179 0.000030 0.000004 -0.000005 -8.379269 71.020905
[L_front_hand02_02]
34 71.020927 -0.000119 0.000060 -0.000005 -0.000004 -8.379259 71.020927
35 71.020927 -0.000119 0.000060 -0.000005 -0.000004 -8.379259 71.020927
[L_front_hand03_02]
34 71.020905 -0.000060 0.000060 0.000015 -0.000040 -8.379267 71.020905
35 71.020905 -0.000060 0.000060 0.000015 -0.000040 -8.379267 71.020905
[R_forearm]
34 322.776428 -0.000060 0.000030 0.189756 -0.095262 -63.985241 322.776428
35 322.776428 -0.000060 0.000030 0.178829 -0.113294 -58.558647 322.776428
[R_front_hand]
34 238.847015 -0.006795 2.210259 -1.130311 1.304550 -29.565153 238.857239
35 238.847015 -0.006795 2.210259 -1.245405 1.196809 -34.894352 238.857239
[R_weapon_bone]
34 155.664093 0.002503 -0.000030 0.003480 0.001198 -91.583786 155.664078
35 155.664093 0.002503 -0.000030 0.003485 0.001184 -91.141388 155.664078
[R_front_hand01_01]
34 87.624611 14.231146 22.918642 -116.960213 3.496675 -1.324139 91.683487
35 87.624611 14.231146 22.918642 -116.960213 3.496675 -1.324139 91.683487
[R_front_hand02_01]
34 89.356956 14.367283 -19.491137 118.419647 -4.257089 0.609827 92.579636
35 89.356956 14.367283 -19.491137 118.419647 -4.257089 0.609827 92.579636
[R_front_hand03_01]
34 87.286232 -22.307278 -0.143439 -0.387970 -0.231462 4.232001 90.091743
35 87.286232 -22.307278 -0.143439 -0.387970 -0.231462 4.232001 90.091743
[R_front_hand01_02]
34 71.020905 0.000060 0.000119 -0.000005 -0.000020 8.379271 71.020905
35 71.020905 0.000060 0.000119 -0.000005 -0.000020 8.379271 71.020905
[R_front_hand02_02]
34 71.020844 -0.000030 -0.000119 0.000000 -0.000021 8.379271 71.020836
35 71.020844 -0.000030 -0.000119 0.000000 -0.000021 8.379271 71.020836
[R_front_hand03_02]
34 71.020905 0.000000 0.000030 -0.000001 -0.000020 8.379275 71.020905
35 71.020905 0.000000 0.000030 -0.000001 -0.000020 8.379275 71.020905
[null_rope01_connect]
34 328.732483 0.000000 -0.000238 -146.991135 -56.662609 -132.431152 328.732483
35 328.732483 0.000000 -0.000238 -148.793747 -57.094929 -126.174210 328.732483
[Rope1_Seg01]
34 0.000004 -0.000040 0.000144 -22.129499 19.600090 -102.202934 0.000149
35 0.000002 -0.000039 0.000148 -18.126940 17.633356 -100.172455 0.000153
[Rope1_Seg02]
34 139.999863 -0.000179 0.000000 7.676954 -5.247470 1.296771 139.999863
35 139.999863 -0.000179 0.000000 9.908577 -6.320748 0.397843 139.999863
[Rope1_Seg03]
34 139.999924 0.000060 -0.000060 4.967628 -5.260121 2.097632 139.999924
35 139.999924 0.000060 -0.000060 6.287633 -6.168120 1.527715 139.999924
[Rope1_Seg04]
34 139.999924 -0.000060 -0.000119 3.769397 -6.408777 3.349608 139.999924
35 139.999924 -0.000060 -0.000119 4.191867 -7.171608 3.240251 139.999924
[Rope1_Seg05]
34 139.999832 0.000119 -0.000060 1.387298 -2.697234 1.458214 139.999832
35 139.999832 0.000119 -0.000060 2.386359 -3.939762 1.320374 139.999832
[Rope1_Seg06]
34 139.999954 0.000119 -0.000060 -0.082002 1.019745 -1.067408 139.999954
35 139.999954 0.000119 -0.000060 1.648034 -0.264418 -1.792743 139.999954
[Rope1_Seg07]
34 139.999985 0.000060 0.000000 0.258602 0.081591 -0.359211 139.999985
35 139.999985 0.000060 0.000000 1.505019 -0.375433 -1.417908 139.999985
[Rope1_Seg09]
34 121.602913 0.000119 -0.000089 -89.793175 -1.359789 0.847147 121.602913
35 121.602913 0.000119 -0.000089 -89.793175 -1.359789 0.847147 121.602913
[L_mid_hand01]
34 103.859421 1.038730 8.195221 104.352036 0.341479 -0.444583 104.187431
35 103.859421 1.038730 8.195221 104.352036 0.341479 -0.444583 104.187431
[L_mid_hand02]
34 105.572853 -4.139662 -10.864139 -135.608444 3.905687 -3.381056 106.211075
35 105.572853 -4.139662 -10.864139 -135.608444 3.905687 -3.381056 106.211075
[L_mid_hand03]
34 104.641464 17.579376 -3.913581 -18.761518 -0.324361 2.942912 106.179977
35 104.641464 17.579376 -3.913581 -18.761518 -0.324361 2.942912 106.179977
[null_rope02_connect]
34 328.732849 0.000179 -0.000119 -104.841484 69.501862 2.460640 328.732849
35 328.732849 0.000179 -0.000119 -102.908318 72.914909 0.994839 328.732849
[Rope2_Seg01]
34 0.000117 0.000114 -0.000144 116.014000 24.045952 -78.537842 0.000218
35 0.000116 0.000114 -0.000148 110.411301 20.622732 -80.387627 0.000220
[Rope2_Seg02]
34 139.999741 -0.000060 -0.000119 -6.915957 1.549770 4.527493 139.999756
35 139.999741 -0.000060 -0.000119 -8.383114 1.973297 5.960342 139.999756
[Rope2_Seg03]
34 140.000107 0.000030 0.000000 -7.856140 1.246352 5.689217 140.000107
35 140.000107 0.000030 0.000000 -8.732324 1.216952 7.120927 140.000107
[Rope2_Seg04]
34 139.999802 0.000000 -0.000060 -10.140074 0.920306 8.542930 139.999802
35 139.999802 0.000000 -0.000060 -10.457649 0.010446 10.639040 139.999802
[Rope2_Seg05]
34 139.999985 -0.000060 0.000119 -2.603404 -1.065083 2.925216 139.999985
35 139.999985 -0.000060 0.000119 -2.485648 -0.151002 2.770506 139.999985
[Rope2_Seg06]
34 139.999893 -0.000030 -0.000119 1.274044 -0.724448 -0.975875 139.999893
35 139.999893 -0.000030 -0.000119 2.482744 1.160305 -3.223890 139.999893
[Rope2_Seg07]
34 139.999893 0.000060 -0.000060 -0.321670 -0.452008 0.472762 139.999893
35 139.999893 0.000060 -0.000060 0.346447 0.300052 -0.541471 139.999893
[Rope2_Seg09]
34 121.338966 0.000089 -0.000060 33.793236 -1.359788 -0.847141 121.338966
35 121.338966 0.000089 -0.000060 33.793236 -1.359788 -0.847141 121.338966
[R_mid_hand01]
34 104.680779 11.144459 -10.335981 -47.384258 2.963522 5.452604 105.778534
35 104.680779 11.144459 -10.335981 -47.384258 2.963522 5.452604 105.778534
[R_mid_hand02]
34 104.070427 2.443552 8.231699 75.626297 -2.250001 1.111093 104.424065
35 104.070427 2.443552 8.231699 75.626297 -2.250001 1.111093 104.424065
[R_mid_hand03]
34 106.028137 -11.221827 -5.996406 -164.381912 2.495983 -6.140520 106.788818
35 106.028137 -11.221827 -5.996406 -164.381912 2.495983 -6.140520 106.788818
[spine02]
34 129.756927 0.001550 0.000119 -0.362089 -4.049605 -2.732396 129.756927
35 129.756927 0.001550 0.000119 -0.304323 -4.051098 -3.526540 129.756927
[spine03]
34 78.652344 0.081319 -4.526257 0.283106 4.306154 -5.954159 78.782516
35 78.633270 0.084681 -4.712543 0.330985 4.286020 -5.362713 78.774399
[pelvis]
34 169.435242 0.051022 0.000000 -0.420320 -0.407377 -0.946450 169.435257
35 169.435242 0.051022 0.000000 -0.212243 -0.297760 -1.432091 169.435257
[null_rope03_connect]
34 -1.257226 -2.466202 137.391083 -153.544708 -88.234749 -95.071381 137.418976
35 -1.257226 -2.466202 137.391083 -148.979141 -88.495972 -98.743599 137.418976
[null_rope04_connect]
34 -1.259640 -2.480268 -137.844437 -153.544708 -88.234749 -95.071381 137.872513
35 -1.259640 -2.480268 -137.844437 -148.979141 -88.495972 -98.743599 137.872513
[Rope3_Seg01]
34 -0.000039 -0.000029 -0.000001 -130.569778 3.750322 -76.256409 0.000049
35 -0.000038 -0.000034 -0.000000 -130.570480 2.937506 -76.118851 0.000051
[Rope3_Seg02]
34 139.999924 -0.000119 0.000060 0.061435 1.317459 -0.393305 139.999924
35 139.999924 -0.000119 0.000060 0.062152 1.040197 0.125871 139.999924
[Rope3_Seg03]
34 139.999924 -0.000119 0.000119 0.062538 1.787430 -0.536501 139.999924
35 139.999924 -0.000119 0.000119 0.072915 1.391327 0.165768 139.999924
[Rope3_Seg04]
34 139.999924 0.000119 0.000000 0.005604 3.578321 -1.457870 139.999924
35 139.999924 0.000119 0.000000 0.050184 2.598380 -0.041720 139.999924
[Rope3_Seg05]
34 139.999924 -0.000238 0.000060 0.258710 6.768441 -2.440546 139.999924
35 139.999924 -0.000238 0.000060 0.469604 6.044174 -0.236025 139.999924
[Rope3_Seg06]
34 139.999893 -0.000119 -0.000060 -0.171269 -4.808884 4.469957 139.999893
35 139.999893 -0.000119 -0.000060 -0.208475 -4.045385 3.285557 139.999893
[Rope3_Seg07]
34 139.999771 0.000060 -0.000119 0.263544 -2.174151 1.841808 139.999771
35 139.999771 0.000060 -0.000119 0.182870 -2.548038 1.417388 139.999771
[Rope3_Seg08]
34 139.999985 -0.000060 0.000000 0.457508 -0.663921 0.711206 139.999985
35 139.999985 -0.000060 0.000000 0.443370 -0.683080 0.572735 139.999985
[Rope3_Seg09]
34 90.185997 -0.000179 -0.000060 89.793228 -1.359877 -0.847183 90.185997
35 90.185997 -0.000179 -0.000060 89.793228 -1.359877 -0.847183 90.185997
[R_rear_hand01]
34 103.366196 -6.073594 -10.757982 -156.049316 6.070419 -2.795869 104.101845
35 103.366196 -6.073594 -10.757982 -156.049316 6.070419 -2.795869 104.101845
[R_rear_hand02]
34 100.509819 12.039542 -7.992327 -38.708435 1.958051 5.461186 101.543350
35 100.509819 12.039542 -7.992327 -38.708435 1.958051 5.461186 101.543350
[R_rear_hand03]
34 101.539970 5.215704 5.435467 84.307625 -2.361032 4.099037 101.819031
35 101.539970 5.215704 5.435467 84.307625 -2.361032 4.099037 101.819031
[Rope4_Seg01]
34 -0.000027 -0.000104 -0.000148 47.615509 -11.635005 -106.001717 0.000183
35 -0.000028 -0.000109 -0.000150 47.842003 -13.060550 -106.320702 0.000188
[Rope4_Seg02]
34 139.999985 0.000060 0.000119 0.014971 2.311411 0.659868 139.999985
35 139.999985 0.000060 0.000119 -0.050825 2.791438 0.282407 139.999985
[Rope4_Seg03]
34 139.999924 0.000000 -0.000238 0.051220 2.830601 0.804371 139.999924
35 139.999924 0.000000 -0.000238 0.002171 3.424598 0.348074 139.999924
[Rope4_Seg04]
34 139.999985 0.000000 0.000119 0.115938 4.061989 1.129158 139.999985
35 139.999985 0.000000 0.000119 0.107581 4.740538 0.525858 139.999985
[Rope4_Seg05]
34 139.999802 -0.000060 -0.000119 0.297736 6.029580 1.671544 139.999802
35 139.999802 -0.000060 -0.000119 0.449370 7.645143 0.913993 139.999802
[Rope4_Seg06]
34 139.999924 0.000000 0.000060 0.153106 1.573699 0.582457 139.999924
35 139.999924 0.000000 0.000060 0.381146 2.865726 -0.058069 139.999924
[Rope4_Seg07]
34 139.999802 0.000000 0.000000 0.086178 -0.789620 -0.063236 139.999802
35 139.999802 0.000000 0.000000 0.117458 -1.407332 -0.568588 139.999802
[Rope4_Seg08]
34 139.999924 0.000000 0.000119 -1.446816 0.409571 0.184439 139.999924
35 139.999924 0.000000 0.000119 -1.388620 0.355828 -0.160929 139.999924
[Rope4_Seg09]
34 90.185791 0.000060 0.000060 -135.617828 2.228885 0.850567 90.185791
35 90.185791 0.000060 0.000060 -135.617828 2.228885 0.850567 90.185791
[L_rear_hand01]
34 101.696655 -8.392275 -7.654577 -38.746338 0.246096 177.290207 102.329041
35 101.696655 -8.392275 -7.654577 -38.746338 0.246096 177.290207 102.329041
[L_rear_hand02]
34 102.726799 -1.568258 5.773216 84.315163 -1.142796 176.247437 102.900848
35 102.726799 -1.568258 5.773216 84.315163 -1.142796 176.247437 102.900848
[L_rear_hand03]
34 104.552910 9.721220 -10.420293 -155.747955 -4.630845 179.564758 105.519653
35 104.552910 9.721220 -10.420293 -155.747955 -4.630845 179.564758 105.519653
